<svg xmlns="http://www.w3.org/2000/svg" xml:space="preserve" width="560" height="560" version="1.1" id="prefix__svg44" clip-rule="evenodd" fill-rule="evenodd" image-rendering="optimizeQuality" shape-rendering="geometricPrecision" text-rendering="geometricPrecision"><defs id="prefix__defs4"><style type="text/css" id="style2">.prefix__fil1{fill:#fefefe}.prefix__fil6{fill:#006498}.prefix__fil5{fill:#bdeaff}</style></defs><g id="prefix__g85" transform="translate(-70 -70)"><path class="prefix__fil1" d="M350 71c154 0 279 125 279 279S504 629 350 629 71 504 71 350 196 71 350 71z" id="prefix__path9" fill="#fefefe"/><path d="M475 236l118 151c3 116-149 252-292 198l-76-99 114-156s138-95 136-94z" id="prefix__path11" fill="#332c2b" fill-opacity=".149"/><path d="M231 211h208l38 24v246c0 5-3 8-8 8H231c-5 0-8-3-8-8V219c0-5 3-8 8-8z" id="prefix__path13" fill="#2bbcff"/><path d="M231 211h208l38 24v2l-37-23H231c-4 0-7 3-7 7v263c-1-1-1-2-1-3V219c0-5 3-8 8-8z" id="prefix__path15" fill="#53c6fc"/><path class="prefix__fil5" id="prefix__polygon17" fill="#bdeaff" d="M305 212h113v98H305z"/><path class="prefix__fil5" d="M255 363h189c3 0 5 2 5 4v116H250V367c0-2 2-4 5-4z" id="prefix__path19" fill="#bdeaff"/><path class="prefix__fil6" id="prefix__polygon21" fill="#006498" d="M250 470h199v13H250z"/><path class="prefix__fil6" d="M380 226h10c3 0 6 2 6 5v40c0 3-3 6-6 6h-10c-3 0-6-3-6-6v-40c0-3 3-5 6-5z" id="prefix__path23" fill="#006498"/><path class="prefix__fil1" d="M254 226c10 0 17 7 17 17 0 9-7 16-17 16-9 0-17-7-17-16 0-10 8-17 17-17z" id="prefix__path25" fill="#fefefe"/><path class="prefix__fil6" d="M267 448h165c2 0 3 1 3 3 0 1-1 3-3 3H267c-2 0-3-2-3-3 0-2 1-3 3-3z" id="prefix__path27" fill="#006498"/><path class="prefix__fil6" d="M267 415h165c2 0 3 1 3 3 0 1-1 2-3 2H267c-2 0-3-1-3-2 0-2 1-3 3-3z" id="prefix__path29" fill="#006498"/><path class="prefix__fil6" d="M267 381h165c2 0 3 2 3 3 0 2-1 3-3 3H267c-2 0-3-1-3-3 0-1 1-3 3-3z" id="prefix__path31" fill="#006498"/><path class="prefix__fil1" d="M236 472c3 0 5 2 5 5 0 2-2 4-5 4s-5-2-5-4c0-3 2-5 5-5z" id="prefix__path33" fill="#fefefe"/><path class="prefix__fil1" d="M463 472c3 0 5 2 5 5 0 2-2 4-5 4s-5-2-5-4c0-3 2-5 5-5z" id="prefix__path35" fill="#fefefe"/><path class="prefix__fil6" id="prefix__polygon37" fill="#006498" d="M305 212h-21v98h21z"/><path d="M477 479v2c0 5-3 8-8 8H231c-5 0-8-3-8-8v-2c0 4 3 8 8 8h238c5 0 8-4 8-8z" id="prefix__path39" fill="#0ea5eb"/><path d="M350 70c155 0 280 125 280 280S505 630 350 630 70 505 70 350 195 70 350 70zm0 46c129 0 234 105 234 234S479 584 350 584 116 479 116 350s105-234 234-234z" id="prefix__path41" fill="#2979ff"/></g></svg>