<?xml version="1.0" encoding="UTF-8" standalone="no"?>
<svg xmlns="http://www.w3.org/2000/svg" version="1.1" xmlns:xlink="http://www.w3.org/1999/xlink" width="512" height="512" x="0" y="0" viewBox="0 0 548.29 548.291" style="enable-background:new 0 0 512 512" xml:space="preserve" class=""><g><path d="M211.233 271.523c-4.364 0-7.154.386-8.493.795v28.337h8.176c9.283 0 15.116-5.864 15.116-14.761 0-9.859-5.832-14.371-14.799-14.371zM120.836 305.049c0 18.252 7.725 32.745 20.943 32.745 13.326 0 20.83-14.636 20.83-33.407 0-16.908-7.063-32.858-20.83-32.858-13.659-.006-20.943 15.026-20.943 33.52zM274.98 271.523c-4.37 0-7.149.386-8.493.795v28.337h8.16c9.303 0 15.129-5.864 15.129-14.761-.001-9.859-5.827-14.371-14.796-14.371z" fill="#546e7a" opacity="1" data-original="#000000" class=""></path><path d="M486.208 196.121h-13.171v-63.525c0-.396-.058-.795-.109-1.2-.026-2.52-.829-4.997-2.556-6.96L364.664 3.677c-.038-.031-.063-.042-.085-.075-.629-.704-1.363-1.29-2.143-1.796a11.117 11.117 0 0 0-2.833-1.312c-.189-.052-.367-.134-.566-.186-.8-.19-1.628-.308-2.473-.308H96.76C84.901 0 75.259 9.649 75.259 21.502v174.613H62.087c-16.968 0-30.729 13.756-30.729 30.733V386.66c0 16.961 13.761 30.731 30.729 30.731h13.166V526.79c0 11.854 9.643 21.501 21.501 21.501H451.53c11.853 0 21.501-9.647 21.501-21.501V417.392h13.166c16.966 0 30.734-13.764 30.734-30.731V226.854c.007-16.982-13.757-30.733-30.723-30.733zM96.76 21.502h249.054v110.006c0 5.94 4.823 10.751 10.751 10.751h94.972v53.861H96.76V21.502zm290.135 295.919v32.096H374.24v-89.718h15.686l19.475 38.473c5.045 9.975 9.396 20.357 12.865 30.074h.226c-.886-11.984-1.218-23.549-1.218-37.255v-31.292h12.767v89.718H419.82l-19.711-39.403c-4.819-9.857-9.837-20.892-13.538-31.013l-.353.125c.567 11.592.677 23.424.677 38.195zm-28.121-21.018v13.309h-28.441v26.356h31.789v13.449h-45.58v-89.718h43.905v13.449h-30.125v23.165h28.452v-.01zm-58.479 28.074c2.342 11.19 4.368 21.581 5.932 25.04h-14.216c-1.122-2.667-2.906-9.99-5.049-21.171-2.121-11.712-5.7-15.434-13.546-15.706h-6.929v36.877h-13.67v-88.524c5.155-1.05 12.874-1.851 20.83-1.851 10.859 0 18.239 2.129 23.29 7.182 4.135 4.128 6.487 10.383 6.487 17.963 0 11.58-6.608 19.433-13.648 22.499v.398c5.364 2.395 8.613 8.653 10.519 17.293zm-63.738 0c2.344 11.19 4.359 21.581 5.934 25.04h-14.223c-1.113-2.667-2.908-9.99-5.042-21.171-2.123-11.712-5.708-15.434-13.546-15.706h-6.94v36.877h-13.659v-88.524c5.145-1.05 12.879-1.851 20.825-1.851 10.863 0 18.254 2.129 23.286 7.182 4.139 4.128 6.494 10.383 6.494 17.963 0 11.58-6.612 19.433-13.653 22.499v.398c5.369 2.395 8.605 8.653 10.524 17.293zm-59.392-20.757c0 30.069-15.346 47.246-36.17 47.246-21.271 0-34.699-19.298-34.699-45.639 0-27.571 14.54-47 35.822-47 22.061 0 35.047 19.835 35.047 45.393zm-94.431-30.225v76.022H68.975v-76.022H47.473v-13.701h56.983v13.701H82.734zm368.802 247.473H96.76V417.392h354.776v103.576zm48.379-247.473h-21.718v76.022h-13.774v-76.022h-21.5v-13.701h56.992v13.701z" fill="#546e7a" opacity="1" data-original="#000000" class=""></path></g></svg>