<svg width="28" height="28" viewBox="0 0 28 28" fill="none" xmlns="http://www.w3.org/2000/svg">
<g clip-path="url(#clip0_2349_1587)">
<path fill-rule="evenodd" clip-rule="evenodd" d="M13.9997 6.83337C14.2758 6.83337 14.4997 7.05723 14.4997 7.33337V14.6484L15.62 13.3413C15.7998 13.1316 16.1154 13.1074 16.3251 13.2871C16.5347 13.4668 16.559 13.7824 16.3793 13.9921L14.3793 16.3254C14.2843 16.4363 14.1456 16.5 13.9997 16.5C13.8537 16.5 13.715 16.4363 13.62 16.3254L11.62 13.9921C11.4403 13.7824 11.4646 13.4668 11.6743 13.2871C11.8839 13.1074 12.1996 13.1316 12.3793 13.3413L13.4997 14.6484V7.33337C13.4997 7.05723 13.7235 6.83337 13.9997 6.83337ZM10.6636 11.5014C10.9397 11.4998 11.1648 11.7224 11.1663 11.9986C11.1679 12.2747 10.9453 12.4998 10.6691 12.5013C9.94013 12.5054 9.4234 12.5243 9.03124 12.5964C8.65337 12.6658 8.43465 12.7772 8.27235 12.9395C8.08784 13.124 7.96754 13.3831 7.90177 13.8723C7.83407 14.3758 7.83301 15.0432 7.83301 16.0002V16.6669C7.83301 17.6238 7.83407 18.2912 7.90177 18.7948C7.96754 19.284 8.08784 19.543 8.27235 19.7275C8.45686 19.912 8.7159 20.0323 9.20509 20.0981C9.70866 20.1658 10.3761 20.1669 11.333 20.1669H16.6663C17.6233 20.1669 18.2907 20.1658 18.7943 20.0981C19.2834 20.0323 19.5425 19.912 19.727 19.7275C19.9115 19.543 20.0318 19.284 20.0976 18.7948C20.1653 18.2912 20.1663 17.6238 20.1663 16.6669V16.0002C20.1663 15.0432 20.1653 14.3758 20.0976 13.8723C20.0318 13.3831 19.9115 13.124 19.727 12.9395C19.5647 12.7772 19.346 12.6658 18.9681 12.5964C18.5759 12.5243 18.0592 12.5054 17.3302 12.5013C17.0541 12.4998 16.8315 12.2747 16.833 11.9986C16.8346 11.7224 17.0597 11.4998 17.3358 11.5014C18.0568 11.5054 18.6577 11.5226 19.1488 11.6128C19.6541 11.7056 20.0842 11.8825 20.4341 12.2324C20.8354 12.6337 21.008 13.1389 21.0887 13.739C21.1664 14.317 21.1664 15.0519 21.1663 15.9636V16.7034C21.1664 17.6152 21.1664 18.35 21.0887 18.928C21.008 19.5281 20.8354 20.0333 20.4341 20.4346C20.0328 20.8359 19.5276 21.0085 18.9275 21.0892C18.3495 21.1669 17.6146 21.1669 16.7029 21.1669H11.2964C10.3847 21.1669 9.64982 21.1669 9.07184 21.0892C8.47177 21.0085 7.96652 20.8359 7.56524 20.4346C7.16396 20.0333 6.99137 19.5281 6.91069 18.928C6.83298 18.35 6.83299 17.6152 6.83301 16.7034V15.9636C6.83299 15.0519 6.83298 14.317 6.91069 13.739C6.99137 13.1389 7.16396 12.6337 7.56524 12.2324C7.91519 11.8825 8.34524 11.7056 8.85058 11.6128C9.34162 11.5226 9.94254 11.5054 10.6636 11.5014Z" fill="#EBEBF5" fill-opacity="0.6"/>
</g>
<defs>
<clipPath id="clip0_2349_1587">
<rect x="6" y="6" width="16" height="16" rx="3.33333" fill="white"/>
</clipPath>
</defs>
</svg>
