<svg width="16" height="16" viewBox="0 0 16 16" fill="none" xmlns="http://www.w3.org/2000/svg">
<g clip-path="url(#clip0_2510_1572)">
<path fill-rule="evenodd" clip-rule="evenodd" d="M7.07168 2.09429C6.67365 2.28785 6.19751 2.58263 5.52033 3.00291L4.187 3.83041C3.54645 4.22796 3.09672 4.50773 2.76126 4.76463C2.43487 5.01459 2.24709 5.22087 2.11871 5.4554C1.98988 5.69076 1.91467 5.96593 1.87506 6.38752C1.83449 6.81922 1.83398 7.36404 1.83398 8.13611V9.15013C1.83398 10.4641 1.83498 11.4009 1.92744 12.1123C2.01826 12.811 2.18933 13.2164 2.47451 13.5114C2.75741 13.804 3.14256 13.9778 3.81013 14.0706C4.49387 14.1657 5.39563 14.1668 6.66732 14.1668H9.33398C10.6057 14.1668 11.5074 14.1657 12.1912 14.0706C12.8587 13.9778 13.2439 13.804 13.5268 13.5114C13.812 13.2164 13.983 12.811 14.0739 12.1123C14.1663 11.4009 14.1673 10.4641 14.1673 9.15013V8.13611C14.1673 7.36404 14.1668 6.81922 14.1262 6.38752C14.0866 5.96593 14.0114 5.69076 13.8826 5.4554C13.7542 5.22087 13.5664 5.01459 13.24 4.76463C12.9046 4.50773 12.4549 4.22796 11.8143 3.83041L10.481 3.00291C9.80379 2.58263 9.32765 2.28785 8.92962 2.09429C8.54183 1.90571 8.2672 1.8335 8.00065 1.8335C7.73411 1.8335 7.45947 1.90571 7.07168 2.09429ZM6.63435 1.19499C7.09967 0.968709 7.52857 0.833496 8.00065 0.833496C8.47273 0.833496 8.90163 0.968709 9.36695 1.19499C9.81675 1.41373 10.3364 1.73622 10.9854 2.13904L12.3631 2.99411C12.9773 3.37524 13.469 3.68043 13.8481 3.9707C14.2406 4.27129 14.542 4.57742 14.7598 4.97525C14.9771 5.37224 15.0749 5.79466 15.1219 6.29397C15.1673 6.77785 15.1673 7.36957 15.1673 8.11164V9.18671C15.1673 10.456 15.1673 11.4579 15.0655 12.2412C14.9611 13.0448 14.7416 13.6935 14.2457 14.2065C13.7476 14.7217 13.1137 14.9519 12.3289 15.0611C11.5683 15.1669 10.5969 15.1668 9.37271 15.1668H6.62859C5.40438 15.1668 4.43298 15.1669 3.67239 15.0611C2.88762 14.9519 2.25371 14.7217 1.75556 14.2065C1.25969 13.6935 1.04023 13.0448 0.935787 12.2412C0.833968 11.4579 0.833975 10.456 0.833985 9.18673L0.833985 8.11165C0.833979 7.36957 0.833975 6.77786 0.879444 6.29397C0.926362 5.79466 1.02422 5.37224 1.24152 4.97525C1.45928 4.57742 1.76075 4.27129 2.15325 3.9707C2.53228 3.68043 3.02404 3.37524 3.63817 2.99409L5.01589 2.13904C5.66493 1.73622 6.18455 1.41373 6.63435 1.19499Z" fill="#737373"/>
<path fill-rule="evenodd" clip-rule="evenodd" d="M7.7805 9.19543C7.27655 9.2986 6.80063 9.66808 6.50271 10.056C6.38468 10.2097 6.3291 10.4386 6.3291 10.7514V14.297H5.3291V10.7514C5.3291 10.3521 5.39398 9.85795 5.7096 9.44695C6.10465 8.93253 6.77147 8.38126 7.57994 8.21575C8.43927 8.03984 9.36288 8.32 10.153 9.30267C10.5432 9.78805 10.6683 10.391 10.6683 10.9308V14.297H9.66829V10.9308C9.66829 10.529 9.57341 10.1778 9.37363 9.92927C8.79205 9.20594 8.23358 9.10268 7.7805 9.19543Z" fill="#737373"/>
</g>
<defs>
<clipPath id="clip0_2510_1572">
<rect width="16" height="16" fill="white"/>
</clipPath>
</defs>
</svg>
